<svg width="36" height="33" viewBox="0 0 36 33" fill="none" xmlns="http://www.w3.org/2000/svg">
<path d="M17.9167 0C8.0625 0 0 6.45 0 14.3333C0 18.0958 1.79167 21.6792 5.01667 24.1875C5.01667 25.2625 4.3 28.1292 0 32.25C0 32.25 6.27083 32.25 11.6458 27.7708C13.6167 28.3083 15.7667 28.6667 17.9167 28.6667C27.7708 28.6667 35.8333 22.2167 35.8333 14.3333C35.8333 6.45 27.7708 0 17.9167 0ZM19.7083 21.5H16.125V17.9167H19.7083V21.5ZM22.9333 12.5417C22.3958 13.2583 21.6792 13.6167 20.9625 13.975C20.425 14.3333 20.2458 14.5125 20.0667 14.8708C19.7083 15.2292 19.7083 15.5875 19.7083 16.125H16.125C16.125 15.2292 16.3042 14.6917 16.6625 14.1542C17.0208 13.7958 17.7375 13.2583 18.6333 12.7208C19.1708 12.5417 19.5292 12.1833 19.7083 11.825C19.8875 11.4667 20.0667 10.9292 20.0667 10.5708C20.0667 10.0333 19.8875 9.675 19.5292 9.31667C19.1708 8.95833 18.6333 8.77917 18.0958 8.77917C17.5583 8.77917 17.2 8.95833 16.8417 9.1375C16.4833 9.31667 16.3042 9.675 16.3042 10.2125H12.7208C12.9 8.95833 13.4375 7.88333 14.3333 7.16667C15.2292 6.45 16.4833 6.27083 18.0958 6.27083C19.7083 6.27083 21.1417 6.62917 22.0375 7.34583C22.9333 8.0625 23.4708 9.1375 23.4708 10.3917C23.65 11.1083 23.4708 11.825 22.9333 12.5417Z" fill="#f37721"/>
</svg>
