<svg width="18" height="17" viewBox="0 0 18 17" fill="none" xmlns="http://www.w3.org/2000/svg">
<path d="M12 8.5H14C14 7.24759 13.4732 6.04647 12.5355 5.16088C11.5979 4.2753 10.3261 3.77778 9 3.77778V5.66667C9.79565 5.66667 10.5587 5.96518 11.1213 6.49653C11.6839 7.02788 12 7.74855 12 8.5ZM16 8.5H18C18 3.77778 13.97 0 9 0V1.88889C12.86 1.88889 16 4.845 16 8.5ZM17 11.8056C15.75 11.8056 14.55 11.6167 13.43 11.2672C13.08 11.1633 12.69 11.2389 12.41 11.5033L10.21 13.5811C7.38 12.2211 5.06 10.03 3.62 7.35722L5.82 5.27944C6.1 5.015 6.18 4.64667 6.07 4.31611C5.7 3.25833 5.5 2.125 5.5 0.944444C5.5 0.693962 5.39464 0.453739 5.20711 0.276621C5.01957 0.0995036 4.76522 0 4.5 0H1C0.734784 0 0.48043 0.0995036 0.292893 0.276621C0.105357 0.453739 0 0.693962 0 0.944444C0 5.20264 1.79107 9.28644 4.97918 12.2974C8.1673 15.3084 12.4913 17 17 17C17.2652 17 17.5196 16.9005 17.7071 16.7234C17.8946 16.5463 18 16.306 18 16.0556V12.75C18 12.4995 17.8946 12.2593 17.7071 12.0822C17.5196 11.9051 17.2652 11.8056 17 11.8056Z" fill="#EC702E"/>
</svg>
